<?xml version="1.0" encoding="UTF-8"?>
      <mxfile host="codeviz.app" modified="2025-04-02T12:55:44.302Z" agent="CodeViz Exporter" version="14.6.5" type="device">
        <diagram id="codeviz-diagram" name="System Diagram">
          <mxGraphModel dx="1000" dy="1000" grid="1" gridSize="10" guides="1" tooltips="1" connect="1" arrows="1" fold="1" page="1" pageScale="1" pageWidth="1169" pageHeight="827" math="0" shadow="0">
            <root>
              <mxCell id="0"/>
              <mxCell id="1" parent="0"/>
              <mxCell id="subGraph4" value="" style="html=1;whiteSpace=wrap;container=1;fillColor=#dae8fc;strokeColor=#6c8ebf;dashed=1;fillOpacity=20;strokeWidth=2;containerType=none;recursiveResize=0;movable=1;resizable=1;autosize=0;dropTarget=0" vertex="1" parent="subGraph5">
                <mxGeometry x="50" y="195" width="380" height="220" as="geometry"/>
              </mxCell>
              <mxCell id="subGraph4_label" value="Firebase Components" style="edgeLabel;html=1;align=center;verticalAlign=middle;resizable=0;labelBackgroundColor=white;spacing=5" vertex="1" parent="subGraph5">
                <mxGeometry x="58" y="203" width="304" height="24" as="geometry"/>
              </mxCell>
<mxCell id="subGraph2" value="" style="html=1;whiteSpace=wrap;container=1;fillColor=#dae8fc;strokeColor=#6c8ebf;dashed=1;fillOpacity=20;strokeWidth=2;containerType=none;recursiveResize=0;movable=1;resizable=1;autosize=0;dropTarget=0" vertex="1" parent="subGraph3">
                <mxGeometry x="601" y="845" width="380" height="220" as="geometry"/>
              </mxCell>
              <mxCell id="subGraph2_label" value="UI Components" style="edgeLabel;html=1;align=center;verticalAlign=middle;resizable=0;labelBackgroundColor=white;spacing=5" vertex="1" parent="subGraph3">
                <mxGeometry x="609" y="853" width="304" height="24" as="geometry"/>
              </mxCell>
<mxCell id="subGraph1" value="" style="html=1;whiteSpace=wrap;container=1;fillColor=#dae8fc;strokeColor=#6c8ebf;dashed=1;fillOpacity=20;strokeWidth=2;containerType=none;recursiveResize=0;movable=1;resizable=1;autosize=0;dropTarget=0" vertex="1" parent="subGraph3">
                <mxGeometry x="61" y="615" width="1080" height="220" as="geometry"/>
              </mxCell>
              <mxCell id="subGraph1_label" value="Core Components" style="edgeLabel;html=1;align=center;verticalAlign=middle;resizable=0;labelBackgroundColor=white;spacing=5" vertex="1" parent="subGraph3">
                <mxGeometry x="69" y="623" width="1004" height="24" as="geometry"/>
              </mxCell>
<mxCell id="subGraph0" value="" style="html=1;whiteSpace=wrap;container=1;fillColor=#dae8fc;strokeColor=#6c8ebf;dashed=1;fillOpacity=20;strokeWidth=2;containerType=none;recursiveResize=0;movable=1;resizable=1;autosize=0;dropTarget=0" vertex="1" parent="subGraph3">
                <mxGeometry x="527.3333333333334" y="195" width="426.66666666666663" height="380" as="geometry"/>
              </mxCell>
              <mxCell id="subGraph0_label" value="Page Components" style="edgeLabel;html=1;align=center;verticalAlign=middle;resizable=0;labelBackgroundColor=white;spacing=5" vertex="1" parent="subGraph3">
                <mxGeometry x="535.3333333333334" y="203" width="350.66666666666663" height="24" as="geometry"/>
              </mxCell>
<mxCell id="subGraph6" value="" style="html=1;whiteSpace=wrap;container=1;fillColor=#dae8fc;strokeColor=#6c8ebf;dashed=1;fillOpacity=20;strokeWidth=2;containerType=none;recursiveResize=0;movable=1;resizable=1;autosize=0;dropTarget=0" vertex="1" parent="1">
                <mxGeometry x="1063" y="1352" width="240" height="220" as="geometry"/>
              </mxCell>
              <mxCell id="subGraph6_label" value="External Services" style="edgeLabel;html=1;align=center;verticalAlign=middle;resizable=0;labelBackgroundColor=white;spacing=5" vertex="1" parent="1">
                <mxGeometry x="1071" y="1360" width="164" height="24" as="geometry"/>
              </mxCell>
<mxCell id="subGraph5" value="" style="html=1;whiteSpace=wrap;container=1;fillColor=#dae8fc;strokeColor=#6c8ebf;dashed=1;fillOpacity=20;strokeWidth=2;containerType=none;recursiveResize=0;movable=1;resizable=1;autosize=0;dropTarget=0" vertex="1" parent="1">
                <mxGeometry x="583" y="1352" width="440" height="435" as="geometry"/>
              </mxCell>
              <mxCell id="subGraph5_label" value="Backend Services" style="edgeLabel;html=1;align=center;verticalAlign=middle;resizable=0;labelBackgroundColor=white;spacing=5" vertex="1" parent="1">
                <mxGeometry x="591" y="1360" width="364" height="24" as="geometry"/>
              </mxCell>
<mxCell id="subGraph3" value="" style="html=1;whiteSpace=wrap;container=1;fillColor=#dae8fc;strokeColor=#6c8ebf;dashed=1;fillOpacity=20;strokeWidth=2;containerType=none;recursiveResize=0;movable=1;resizable=1;autosize=0;dropTarget=0" vertex="1" parent="1">
                <mxGeometry x="43" y="187" width="1140" height="1085" as="geometry"/>
              </mxCell>
              <mxCell id="subGraph3_label" value="Frontend Container" style="edgeLabel;html=1;align=center;verticalAlign=middle;resizable=0;labelBackgroundColor=white;spacing=5" vertex="1" parent="1">
                <mxGeometry x="51" y="195" width="1064" height="24" as="geometry"/>
              </mxCell>
              <mxCell id="User" value="User" style="rounded=1;whiteSpace=wrap;html=1;fillColor=#f5f5f5" vertex="1" parent="1">
                    <mxGeometry x="689.3333333333334" y="12" width="120" height="60" as="geometry"/>
                  </mxCell>
<mxCell id="NextApp" value="Next.js App&lt;br&gt;Next.js 13+" style="rounded=1;whiteSpace=wrap;html=1;fillColor=#f5f5f5" vertex="1" parent="subGraph3">
                    <mxGeometry x="677.3333333333334" y="120" width="120" height="60" as="geometry"/>
                  </mxCell>
<mxCell id="MainPage" value="Main Page&lt;br&gt;React/Next.js" style="rounded=1;whiteSpace=wrap;html=1;fillColor=#f5f5f5" vertex="1" parent="subGraph0">
                    <mxGeometry x="180" y="120" width="120" height="60" as="geometry"/>
                  </mxCell>
<mxCell id="Layout" value="Root Layout&lt;br&gt;React/Next.js" style="rounded=1;whiteSpace=wrap;html=1;fillColor=#f5f5f5" vertex="1" parent="subGraph0">
                    <mxGeometry x="226.66666666666666" y="280" width="120" height="60" as="geometry"/>
                  </mxCell>
<mxCell id="ErrorPage" value="Error Page&lt;br&gt;React/Next.js" style="rounded=1;whiteSpace=wrap;html=1;fillColor=#f5f5f5" vertex="1" parent="subGraph0">
                    <mxGeometry x="40" y="120" width="120" height="60" as="geometry"/>
                  </mxCell>
<mxCell id="Navigation" value="Navigation&lt;br&gt;React" style="rounded=1;whiteSpace=wrap;html=1;fillColor=#f5f5f5" vertex="1" parent="subGraph1">
                    <mxGeometry x="600" y="120" width="120" height="60" as="geometry"/>
                  </mxCell>
<mxCell id="About" value="About Section&lt;br&gt;React" style="rounded=1;whiteSpace=wrap;html=1;fillColor=#f5f5f5" vertex="1" parent="subGraph1">
                    <mxGeometry x="40" y="120" width="120" height="60" as="geometry"/>
                  </mxCell>
<mxCell id="Services" value="Service Section&lt;br&gt;React" style="rounded=1;whiteSpace=wrap;html=1;fillColor=#f5f5f5" vertex="1" parent="subGraph1">
                    <mxGeometry x="320" y="120" width="120" height="60" as="geometry"/>
                  </mxCell>
<mxCell id="Projects" value="Projects Section&lt;br&gt;React" style="rounded=1;whiteSpace=wrap;html=1;fillColor=#f5f5f5" vertex="1" parent="subGraph1">
                    <mxGeometry x="460" y="120" width="120" height="60" as="geometry"/>
                  </mxCell>
<mxCell id="Clients" value="Clients Section&lt;br&gt;React" style="rounded=1;whiteSpace=wrap;html=1;fillColor=#f5f5f5" vertex="1" parent="subGraph1">
                    <mxGeometry x="880" y="120" width="120" height="60" as="geometry"/>
                  </mxCell>
<mxCell id="Contact" value="Contact Form&lt;br&gt;React" style="rounded=1;whiteSpace=wrap;html=1;fillColor=#f5f5f5" vertex="1" parent="subGraph1">
                    <mxGeometry x="740" y="120" width="120" height="60" as="geometry"/>
                  </mxCell>
<mxCell id="Footer" value="Footer&lt;br&gt;React" style="rounded=1;whiteSpace=wrap;html=1;fillColor=#f5f5f5" vertex="1" parent="subGraph1">
                    <mxGeometry x="180" y="120" width="120" height="60" as="geometry"/>
                  </mxCell>
<mxCell id="ToastNotifications" value="Toast Notifications&lt;br&gt;React-Toastify" style="rounded=1;whiteSpace=wrap;html=1;fillColor=#f5f5f5" vertex="1" parent="subGraph2">
                    <mxGeometry x="180" y="120" width="120" height="60" as="geometry"/>
                  </mxCell>
<mxCell id="ResponsiveMenu" value="Responsive Menu&lt;br&gt;React" style="rounded=1;whiteSpace=wrap;html=1;fillColor=#f5f5f5" vertex="1" parent="subGraph2">
                    <mxGeometry x="40" y="120" width="120" height="60" as="geometry"/>
                  </mxCell>
<mxCell id="FirebaseBackend" value="Firebase Backend&lt;br&gt;Firebase" style="rounded=1;whiteSpace=wrap;html=1;fillColor=#f5f5f5" vertex="1" parent="subGraph5">
                    <mxGeometry x="180" y="120" width="120" height="60" as="geometry"/>
                  </mxCell>
<mxCell id="Firestore" value="Cloud Firestore&lt;br&gt;Firebase" style="rounded=1;whiteSpace=wrap;html=1;fillColor=#f5f5f5" vertex="1" parent="subGraph4">
                    <mxGeometry x="180" y="120" width="120" height="60" as="geometry"/>
                  </mxCell>
<mxCell id="FirebaseAuth" value="Authentication&lt;br&gt;Firebase" style="rounded=1;whiteSpace=wrap;html=1;fillColor=#f5f5f5" vertex="1" parent="subGraph4">
                    <mxGeometry x="40" y="120" width="120" height="60" as="geometry"/>
                  </mxCell>
<mxCell id="GoogleFonts" value="Google Fonts&lt;br&gt;CDN" style="rounded=1;whiteSpace=wrap;html=1;fillColor=#f5f5f5" vertex="1" parent="subGraph6">
                    <mxGeometry x="40" y="120" width="120" height="60" as="geometry"/>
                  </mxCell>
              <mxCell id="edge-L_User_NextApp_0" style="edgeStyle=orthogonalEdgeStyle;rounded=1;orthogonalLoop=1;jettySize=auto;html=1;strokeColor=#808080;strokeWidth=2;jumpStyle=arc;jumpSize=10;spacing=15;labelBackgroundColor=white;labelBorderColor=none" edge="1" parent="1" source="User" target="NextApp">
                  <mxGeometry relative="1" as="geometry"/>
                </mxCell>
                <mxCell id="edge-L_User_NextApp_0_label" value="Accesses" style="edgeLabel;html=1;align=center;verticalAlign=middle;resizable=0;points=[];" vertex="1" connectable="0" parent="edge-L_User_NextApp_0">
                  <mxGeometry x="-0.2" y="10" relative="1" as="geometry">
                    <mxPoint as="offset"/>
                  </mxGeometry>
                </mxCell>
<mxCell id="edge-L_NextApp_MainPage_1" style="edgeStyle=orthogonalEdgeStyle;rounded=1;orthogonalLoop=1;jettySize=auto;html=1;strokeColor=#808080;strokeWidth=2;jumpStyle=arc;jumpSize=10;spacing=15;labelBackgroundColor=white;labelBorderColor=none" edge="1" parent="1" source="NextApp" target="MainPage">
                  <mxGeometry relative="1" as="geometry"/>
                </mxCell>
                <mxCell id="edge-L_NextApp_MainPage_1_label" value="Renders" style="edgeLabel;html=1;align=center;verticalAlign=middle;resizable=0;points=[];" vertex="1" connectable="0" parent="edge-L_NextApp_MainPage_1">
                  <mxGeometry x="-0.2" y="10" relative="1" as="geometry">
                    <mxPoint as="offset"/>
                  </mxGeometry>
                </mxCell>
<mxCell id="edge-L_MainPage_Layout_2" style="edgeStyle=orthogonalEdgeStyle;rounded=1;orthogonalLoop=1;jettySize=auto;html=1;strokeColor=#808080;strokeWidth=2;jumpStyle=arc;jumpSize=10;spacing=15;labelBackgroundColor=white;labelBorderColor=none" edge="1" parent="1" source="MainPage" target="Layout">
                  <mxGeometry relative="1" as="geometry"/>
                </mxCell>
                <mxCell id="edge-L_MainPage_Layout_2_label" value="Uses" style="edgeLabel;html=1;align=center;verticalAlign=middle;resizable=0;points=[];" vertex="1" connectable="0" parent="edge-L_MainPage_Layout_2">
                  <mxGeometry x="-0.2" y="10" relative="1" as="geometry">
                    <mxPoint as="offset"/>
                  </mxGeometry>
                </mxCell>
<mxCell id="edge-L_Layout_GoogleFonts_3" style="edgeStyle=orthogonalEdgeStyle;rounded=1;orthogonalLoop=1;jettySize=auto;html=1;strokeColor=#808080;strokeWidth=2;jumpStyle=arc;jumpSize=10;spacing=15;labelBackgroundColor=white;labelBorderColor=none" edge="1" parent="1" source="Layout" target="GoogleFonts">
                  <mxGeometry relative="1" as="geometry"/>
                </mxCell>
                <mxCell id="edge-L_Layout_GoogleFonts_3_label" value="Loads" style="edgeLabel;html=1;align=center;verticalAlign=middle;resizable=0;points=[];" vertex="1" connectable="0" parent="edge-L_Layout_GoogleFonts_3">
                  <mxGeometry x="-0.2" y="10" relative="1" as="geometry">
                    <mxPoint as="offset"/>
                  </mxGeometry>
                </mxCell>
<mxCell id="edge-L_MainPage_Navigation_4" style="edgeStyle=orthogonalEdgeStyle;rounded=1;orthogonalLoop=1;jettySize=auto;html=1;strokeColor=#808080;strokeWidth=2;jumpStyle=arc;jumpSize=10;spacing=15;labelBackgroundColor=white;labelBorderColor=none" edge="1" parent="1" source="MainPage" target="Navigation">
                  <mxGeometry relative="1" as="geometry"/>
                </mxCell>
                <mxCell id="edge-L_MainPage_Navigation_4_label" value="Includes" style="edgeLabel;html=1;align=center;verticalAlign=middle;resizable=0;points=[];" vertex="1" connectable="0" parent="edge-L_MainPage_Navigation_4">
                  <mxGeometry x="-0.2" y="10" relative="1" as="geometry">
                    <mxPoint as="offset"/>
                  </mxGeometry>
                </mxCell>
<mxCell id="edge-L_MainPage_About_5" style="edgeStyle=orthogonalEdgeStyle;rounded=1;orthogonalLoop=1;jettySize=auto;html=1;strokeColor=#808080;strokeWidth=2;jumpStyle=arc;jumpSize=10;spacing=15;labelBackgroundColor=white;labelBorderColor=none" edge="1" parent="1" source="MainPage" target="About">
                  <mxGeometry relative="1" as="geometry"/>
                </mxCell>
                <mxCell id="edge-L_MainPage_About_5_label" value="Includes" style="edgeLabel;html=1;align=center;verticalAlign=middle;resizable=0;points=[];" vertex="1" connectable="0" parent="edge-L_MainPage_About_5">
                  <mxGeometry x="-0.2" y="10" relative="1" as="geometry">
                    <mxPoint as="offset"/>
                  </mxGeometry>
                </mxCell>
<mxCell id="edge-L_MainPage_Services_6" style="edgeStyle=orthogonalEdgeStyle;rounded=1;orthogonalLoop=1;jettySize=auto;html=1;strokeColor=#808080;strokeWidth=2;jumpStyle=arc;jumpSize=10;spacing=15;labelBackgroundColor=white;labelBorderColor=none" edge="1" parent="1" source="MainPage" target="Services">
                  <mxGeometry relative="1" as="geometry"/>
                </mxCell>
                <mxCell id="edge-L_MainPage_Services_6_label" value="Includes" style="edgeLabel;html=1;align=center;verticalAlign=middle;resizable=0;points=[];" vertex="1" connectable="0" parent="edge-L_MainPage_Services_6">
                  <mxGeometry x="-0.2" y="10" relative="1" as="geometry">
                    <mxPoint as="offset"/>
                  </mxGeometry>
                </mxCell>
<mxCell id="edge-L_MainPage_Projects_7" style="edgeStyle=orthogonalEdgeStyle;rounded=1;orthogonalLoop=1;jettySize=auto;html=1;strokeColor=#808080;strokeWidth=2;jumpStyle=arc;jumpSize=10;spacing=15;labelBackgroundColor=white;labelBorderColor=none" edge="1" parent="1" source="MainPage" target="Projects">
                  <mxGeometry relative="1" as="geometry"/>
                </mxCell>
                <mxCell id="edge-L_MainPage_Projects_7_label" value="Includes" style="edgeLabel;html=1;align=center;verticalAlign=middle;resizable=0;points=[];" vertex="1" connectable="0" parent="edge-L_MainPage_Projects_7">
                  <mxGeometry x="-0.2" y="10" relative="1" as="geometry">
                    <mxPoint as="offset"/>
                  </mxGeometry>
                </mxCell>
<mxCell id="edge-L_MainPage_Clients_8" style="edgeStyle=orthogonalEdgeStyle;rounded=1;orthogonalLoop=1;jettySize=auto;html=1;strokeColor=#808080;strokeWidth=2;jumpStyle=arc;jumpSize=10;spacing=15;labelBackgroundColor=white;labelBorderColor=none" edge="1" parent="1" source="MainPage" target="Clients">
                  <mxGeometry relative="1" as="geometry"/>
                </mxCell>
                <mxCell id="edge-L_MainPage_Clients_8_label" value="Includes" style="edgeLabel;html=1;align=center;verticalAlign=middle;resizable=0;points=[];" vertex="1" connectable="0" parent="edge-L_MainPage_Clients_8">
                  <mxGeometry x="-0.2" y="10" relative="1" as="geometry">
                    <mxPoint as="offset"/>
                  </mxGeometry>
                </mxCell>
<mxCell id="edge-L_MainPage_Contact_9" style="edgeStyle=orthogonalEdgeStyle;rounded=1;orthogonalLoop=1;jettySize=auto;html=1;strokeColor=#808080;strokeWidth=2;jumpStyle=arc;jumpSize=10;spacing=15;labelBackgroundColor=white;labelBorderColor=none" edge="1" parent="1" source="MainPage" target="Contact">
                  <mxGeometry relative="1" as="geometry"/>
                </mxCell>
                <mxCell id="edge-L_MainPage_Contact_9_label" value="Includes" style="edgeLabel;html=1;align=center;verticalAlign=middle;resizable=0;points=[];" vertex="1" connectable="0" parent="edge-L_MainPage_Contact_9">
                  <mxGeometry x="-0.2" y="10" relative="1" as="geometry">
                    <mxPoint as="offset"/>
                  </mxGeometry>
                </mxCell>
<mxCell id="edge-L_MainPage_Footer_10" style="edgeStyle=orthogonalEdgeStyle;rounded=1;orthogonalLoop=1;jettySize=auto;html=1;strokeColor=#808080;strokeWidth=2;jumpStyle=arc;jumpSize=10;spacing=15;labelBackgroundColor=white;labelBorderColor=none" edge="1" parent="1" source="MainPage" target="Footer">
                  <mxGeometry relative="1" as="geometry"/>
                </mxCell>
                <mxCell id="edge-L_MainPage_Footer_10_label" value="Includes" style="edgeLabel;html=1;align=center;verticalAlign=middle;resizable=0;points=[];" vertex="1" connectable="0" parent="edge-L_MainPage_Footer_10">
                  <mxGeometry x="-0.2" y="10" relative="1" as="geometry">
                    <mxPoint as="offset"/>
                  </mxGeometry>
                </mxCell>
<mxCell id="edge-L_Navigation_ResponsiveMenu_11" style="edgeStyle=orthogonalEdgeStyle;rounded=1;orthogonalLoop=1;jettySize=auto;html=1;strokeColor=#808080;strokeWidth=2;jumpStyle=arc;jumpSize=10;spacing=15;labelBackgroundColor=white;labelBorderColor=none" edge="1" parent="1" source="Navigation" target="ResponsiveMenu">
                  <mxGeometry relative="1" as="geometry"/>
                </mxCell>
                <mxCell id="edge-L_Navigation_ResponsiveMenu_11_label" value="Uses" style="edgeLabel;html=1;align=center;verticalAlign=middle;resizable=0;points=[];" vertex="1" connectable="0" parent="edge-L_Navigation_ResponsiveMenu_11">
                  <mxGeometry x="-0.2" y="10" relative="1" as="geometry">
                    <mxPoint as="offset"/>
                  </mxGeometry>
                </mxCell>
<mxCell id="edge-L_Contact_ToastNotifications_12" style="edgeStyle=orthogonalEdgeStyle;rounded=1;orthogonalLoop=1;jettySize=auto;html=1;strokeColor=#808080;strokeWidth=2;jumpStyle=arc;jumpSize=10;spacing=15;labelBackgroundColor=white;labelBorderColor=none" edge="1" parent="1" source="Contact" target="ToastNotifications">
                  <mxGeometry relative="1" as="geometry"/>
                </mxCell>
                <mxCell id="edge-L_Contact_ToastNotifications_12_label" value="Uses" style="edgeLabel;html=1;align=center;verticalAlign=middle;resizable=0;points=[];" vertex="1" connectable="0" parent="edge-L_Contact_ToastNotifications_12">
                  <mxGeometry x="-0.2" y="10" relative="1" as="geometry">
                    <mxPoint as="offset"/>
                  </mxGeometry>
                </mxCell>
<mxCell id="edge-L_Contact_Firestore_13" style="edgeStyle=orthogonalEdgeStyle;rounded=1;orthogonalLoop=1;jettySize=auto;html=1;strokeColor=#808080;strokeWidth=2;jumpStyle=arc;jumpSize=10;spacing=15;labelBackgroundColor=white;labelBorderColor=none" edge="1" parent="1" source="Contact" target="Firestore">
                  <mxGeometry relative="1" as="geometry"/>
                </mxCell>
                <mxCell id="edge-L_Contact_Firestore_13_label" value="Submits to" style="edgeLabel;html=1;align=center;verticalAlign=middle;resizable=0;points=[];" vertex="1" connectable="0" parent="edge-L_Contact_Firestore_13">
                  <mxGeometry x="-0.2" y="10" relative="1" as="geometry">
                    <mxPoint as="offset"/>
                  </mxGeometry>
                </mxCell>
<mxCell id="edge-L_NextApp_FirebaseBackend_14" style="edgeStyle=orthogonalEdgeStyle;rounded=1;orthogonalLoop=1;jettySize=auto;html=1;strokeColor=#808080;strokeWidth=2;jumpStyle=arc;jumpSize=10;spacing=15;labelBackgroundColor=white;labelBorderColor=none" edge="1" parent="1" source="NextApp" target="FirebaseBackend">
                  <mxGeometry relative="1" as="geometry"/>
                </mxCell>
                <mxCell id="edge-L_NextApp_FirebaseBackend_14_label" value="Connects to" style="edgeLabel;html=1;align=center;verticalAlign=middle;resizable=0;points=[];" vertex="1" connectable="0" parent="edge-L_NextApp_FirebaseBackend_14">
                  <mxGeometry x="-0.2" y="10" relative="1" as="geometry">
                    <mxPoint as="offset"/>
                  </mxGeometry>
                </mxCell>
<mxCell id="edge-L_FirebaseBackend_Firestore_15" style="edgeStyle=orthogonalEdgeStyle;rounded=1;orthogonalLoop=1;jettySize=auto;html=1;strokeColor=#808080;strokeWidth=2;jumpStyle=arc;jumpSize=10;spacing=15;labelBackgroundColor=white;labelBorderColor=none" edge="1" parent="1" source="FirebaseBackend" target="Firestore">
                  <mxGeometry relative="1" as="geometry"/>
                </mxCell>
                <mxCell id="edge-L_FirebaseBackend_Firestore_15_label" value="Manages" style="edgeLabel;html=1;align=center;verticalAlign=middle;resizable=0;points=[];" vertex="1" connectable="0" parent="edge-L_FirebaseBackend_Firestore_15">
                  <mxGeometry x="-0.2" y="10" relative="1" as="geometry">
                    <mxPoint as="offset"/>
                  </mxGeometry>
                </mxCell>
<mxCell id="edge-L_FirebaseBackend_FirebaseAuth_16" style="edgeStyle=orthogonalEdgeStyle;rounded=1;orthogonalLoop=1;jettySize=auto;html=1;strokeColor=#808080;strokeWidth=2;jumpStyle=arc;jumpSize=10;spacing=15;labelBackgroundColor=white;labelBorderColor=none" edge="1" parent="1" source="FirebaseBackend" target="FirebaseAuth">
                  <mxGeometry relative="1" as="geometry"/>
                </mxCell>
                <mxCell id="edge-L_FirebaseBackend_FirebaseAuth_16_label" value="Manages" style="edgeLabel;html=1;align=center;verticalAlign=middle;resizable=0;points=[];" vertex="1" connectable="0" parent="edge-L_FirebaseBackend_FirebaseAuth_16">
                  <mxGeometry x="-0.2" y="10" relative="1" as="geometry">
                    <mxPoint as="offset"/>
                  </mxGeometry>
                </mxCell>
            </root>
          </mxGraphModel>
        </diagram>
      </mxfile>